<?xml version="1.0" encoding="utf-8"?>
<!-- Generator: Adobe Illustrator 27.9.0, SVG Export Plug-In . SVG Version: 6.00 Build 0)  -->
<svg version="1.1" id="Vrstva_1" xmlns="http://www.w3.org/2000/svg" xmlns:xlink="http://www.w3.org/1999/xlink" x="0px" y="0px"
	 viewBox="0 0 26.3 26.3" style="enable-background:new 0 0 26.3 26.3;" xml:space="preserve">
<style type="text/css">
	.st0{fill:#9577F7;}
</style>
<g>
	<g>
		<path class="st0" d="M22.5,23.2H3.8c-0.4,0-0.8-0.3-0.8-0.8V3.8c0-0.4,0.3-0.8,0.8-0.8h9.3c0.4,0,0.8,0.3,0.8,0.8
			s-0.3,0.8-0.8,0.8H4.6v17.1h17.1v-8.6c0-0.4,0.3-0.8,0.8-0.8s0.8,0.3,0.8,0.8v9.3C23.2,22.9,22.9,23.2,22.5,23.2z"/>
	</g>
	<g>
		<path class="st0" d="M8.6,18.4c-0.2,0-0.4-0.1-0.5-0.2c-0.2-0.2-0.3-0.5-0.2-0.7l1-4.2C9,13.1,9,13,9.1,12.9l8.8-8.8
			C19.1,3,21,3,22.1,4.2c1.2,1.2,1.2,3.1,0,4.2l-8.8,8.8c-0.1,0.1-0.2,0.2-0.4,0.2l-4.2,1C8.8,18.4,8.7,18.4,8.6,18.4z M10.3,13.8
			l-0.7,2.8l2.8-0.7l8.6-8.6c0.6-0.6,0.6-1.5,0-2.1c-0.6-0.6-1.5-0.6-2.1,0L10.3,13.8z M12.8,16.6L12.8,16.6L12.8,16.6z"/>
	</g>
</g>
</svg>
