<?xml version="1.0" encoding="utf-8"?>
<!-- Generator: Adobe Illustrator 27.8.1, SVG Export Plug-In . SVG Version: 6.00 Build 0)  -->
<svg version="1.1" id="Vrstva_1" xmlns="http://www.w3.org/2000/svg" xmlns:xlink="http://www.w3.org/1999/xlink" x="0px" y="0px"
	 viewBox="0 0 34.7 34.7" style="enable-background:new 0 0 34.7 34.7;" xml:space="preserve">
<style type="text/css">
	.st0{fill:#9577F7;}
</style>
<g>
	<path class="st0" d="M17.4,0C7.8,0,0,7.8,0,17.4c0,9.6,7.8,17.4,17.4,17.4s17.4-7.8,17.4-17.4C34.7,7.8,26.9,0,17.4,0z M17.4,33.2
		c-8.7,0-15.9-7.1-15.9-15.9c0-8.7,7.1-15.9,15.9-15.9s15.9,7.1,15.9,15.9C33.2,26.1,26.1,33.2,17.4,33.2z"/>
	<path class="st0" d="M24.8,16.6h-6.7V9.9c0-0.4-0.3-0.8-0.8-0.8s-0.8,0.3-0.8,0.8v6.7H9.9c-0.4,0-0.8,0.3-0.8,0.8s0.3,0.8,0.8,0.8
		h6.7v6.7c0,0.4,0.3,0.8,0.8,0.8s0.8-0.3,0.8-0.8v-6.7h6.7c0.4,0,0.8-0.3,0.8-0.8S25.2,16.6,24.8,16.6z"/>
</g>
</svg>
