<?xml version="1.0" encoding="utf-8"?>
<!-- Generator: Adobe Illustrator 27.9.0, SVG Export Plug-In . SVG Version: 6.00 Build 0)  -->
<svg version="1.1" id="Vrstva_1" xmlns="http://www.w3.org/2000/svg" xmlns:xlink="http://www.w3.org/1999/xlink" x="0px" y="0px"
	 viewBox="0 0 26.3 26.3" style="enable-background:new 0 0 26.3 26.3;" xml:space="preserve">
<style type="text/css">
	.st0{fill:#9577F7;}
</style>
<g>
	<g>
		<path class="st0" d="M13.2,26.3C5.9,26.3,0,20.4,0,13.2C0,5.9,5.9,0,13.2,0s13.2,5.9,13.2,13.2C26.3,20.4,20.4,26.3,13.2,26.3z
			 M13.2,1.5C6.7,1.5,1.5,6.7,1.5,13.2c0,6.4,5.2,11.7,11.7,11.7s11.7-5.2,11.7-11.7C24.8,6.7,19.6,1.5,13.2,1.5z"/>
	</g>
	<g>
		<g>
			<path class="st0" d="M18.7,13.9H7.6c-0.4,0-0.7-0.3-0.7-0.7c0-0.4,0.3-0.7,0.7-0.7h11.2c0.4,0,0.7,0.3,0.7,0.7
				C19.5,13.6,19.2,13.9,18.7,13.9z"/>
		</g>
	</g>
</g>
</svg>
