<?xml version="1.0" encoding="utf-8"?>
<!-- Generator: Adobe Illustrator 27.9.0, SVG Export Plug-In . SVG Version: 6.00 Build 0)  -->
<svg version="1.1" id="Vrstva_1" xmlns="http://www.w3.org/2000/svg" xmlns:xlink="http://www.w3.org/1999/xlink" x="0px" y="0px"
	 viewBox="0 0 26.3 26.3" style="enable-background:new 0 0 26.3 26.3;" xml:space="preserve">
<style type="text/css">
	.st0{fill:#9577F7;}
</style>
<g>
	<g>
		<path class="st0" d="M24.1,24.7H2.2c-0.4,0-0.6-0.3-0.6-0.6V2.2c0-0.4,0.3-0.6,0.6-0.6h10.9c0.4,0,0.7,0.3,0.7,0.7S13.6,3,13.1,3
			H2.9v20.5h20.5V13.2c0-0.4,0.3-0.7,0.7-0.7s0.7,0.3,0.7,0.7v10.9C24.7,24.4,24.4,24.7,24.1,24.7z"/>
	</g>
	<g>
		<path class="st0" d="M7.8,19.1c-0.2,0-0.4-0.1-0.4-0.2c-0.2-0.2-0.3-0.4-0.2-0.6l1.2-4.9c0-0.1,0.1-0.3,0.2-0.4L18.9,2.8
			c1.3-1.3,3.3-1.3,4.7,0s1.3,3.3,0,4.7L13.3,17.7c-0.1,0.1-0.2,0.2-0.4,0.2L8,19.1C8,19.1,7.9,19.1,7.8,19.1z M9.7,13.9l-0.9,3.7
			l3.7-0.9L22.6,6.5c0.8-0.8,0.8-2,0-2.8s-2-0.8-2.8,0L9.7,13.9z M12.8,17.2L12.8,17.2L12.8,17.2z"/>
	</g>
</g>
</svg>
